<svg xmlns="http://www.w3.org/2000/svg" xmlns:xlink="http://www.w3.org/1999/xlink" width="14" height="14" viewBox="0 0 14 14"><defs><style>.a{fill:none;}.b{clip-path:url(#a);}.c{isolation:isolate;}.d{clip-path:url(#b);}.e{clip-path:url(#c);}</style><clipPath id="a"><path class="a" d="M13.7-1.7a.967.967,0,0,1,0,1.4A.908.908,0,0,1,13,0a.908.908,0,0,1-.7-.3L7-5.6,1.7-.3A.908.908,0,0,1,1,0,.908.908,0,0,1,.3-.3a.967.967,0,0,1,0-1.4L5.6-7,.3-12.3a.967.967,0,0,1,0-1.4.967.967,0,0,1,1.4,0L7-8.4l5.3-5.3a.967.967,0,0,1,1.4,0,.967.967,0,0,1,0,1.4L8.4-7Z" transform="translate(0 14)"/></clipPath><clipPath id="b"><rect class="a" width="26" height="24"/></clipPath><clipPath id="c"><path class="a" d="M0,0H14V-14H0Z" transform="translate(0 14)"/></clipPath></defs><g transform="translate(15 94)"><g class="b" transform="translate(-15 -94)"><g class="c" transform="translate(-6 -5)"><g class="d"><g class="e" transform="translate(6 5)"><path d="M-5-19H19V5H-5Z" transform="translate(0 14)"/></g></g></g></g></g></svg>