<svg xmlns="http://www.w3.org/2000/svg" xmlns:xlink="http://www.w3.org/1999/xlink" width="14" height="8" viewBox="0 0 14 8"><defs><style>.a{fill:#131313;}.b{clip-path:url(#a);}.c{isolation:isolate;}.d{clip-path:url(#b);}.e{clip-path:url(#c);}</style><clipPath id="a"><path class="a" d="M13.7-1.7l-6-6A.908.908,0,0,0,7-8a.908.908,0,0,0-.7.3l-6,6A.967.967,0,0,0,.3-.3a.967.967,0,0,0,1.4,0L7-5.6,12.3-.3a.967.967,0,0,0,1.4,0A.967.967,0,0,0,13.7-1.7Z" transform="translate(0 8)"/></clipPath><clipPath id="b"><rect class="a" width="24" height="18"/></clipPath><clipPath id="c"><path class="a" d="M0-8H14V0H0Z" transform="translate(0 8)"/></clipPath></defs><g class="b"><g class="c" transform="translate(-5 -5)"><g class="d"><g class="e" transform="translate(5 5)"><path class="a" d="M-5,5H19V-13H-5Z" transform="translate(0 8)"/></g></g></g></g></svg>